<?xml version="1.0" standalone="no"?><!DOCTYPE svg PUBLIC "-//W3C//DTD SVG 1.1//EN" "http://www.w3.org/Graphics/SVG/1.1/DTD/svg11.dtd"><svg t="1610097837905" class="icon" viewBox="0 0 1024 1024" version="1.1" xmlns="http://www.w3.org/2000/svg" p-id="30196" xmlns:xlink="http://www.w3.org/1999/xlink" width="128" height="128"><defs><style type="text/css"></style></defs><path d="M878.1 868.6h-729-0.1c-1.4 0-2.8 0-4.1-0.1-0.9-0.1-1.8-0.1-2.7-0.3 3.9 0.6 4.6 0.6 2.1 0.2-2.4-0.6-4.8-1-7.1-1.8-1.1-0.3-2.1-0.7-3.1-1.1-4.5-1.5 4.9 2.5 0.7 0.2-2.3-1.3-4.6-2.4-6.8-3.9-1.1-0.7-2.1-1.6-3.2-2.3 5.6 3.1 1.3 0.9-0.3-0.6s-3-3.1-4.5-4.7c-3.3-3.4 3 4.5 0.4 0.6-0.7-1.1-1.5-2.1-2.2-3.2-1.3-2-2.2-5.1-3.7-6.9 0.4 1 0.9 2.1 1.3 3.1-0.3-0.8-0.6-1.6-0.9-2.5-0.6-1.7-1.1-3.4-1.6-5.1-0.3-1.1-0.5-2.2-0.7-3.3-0.5-2.5 0.6-3.5 0.1 1.4 0.2-2.2-0.4-4.7-0.4-6.9v-0.5-3.1-14.5-56.2-174.7-173.2-52.8-12.7-2.2-1.5c0-1.4 0.2-2.7 0.2-4.1 0.3-5-1.2 5.5-0.1 0.7 0.5-2.2 0.9-4.3 1.6-6.5 0.4-1.3 0.9-2.5 1.3-3.8 0.9-2.3 0.6-1.6-0.8 1.8 0.4-0.8 0.7-1.6 1.1-2.4 1.2-2.3 2.5-4.6 4-6.7 0.3-0.4 0.5-0.7 0.8-1.1 1.4-1.9 1-1.4-1.2 1.6 0.9-0.6 1.8-2.1 2.6-2.9 1.5-1.6 3.1-3 4.7-4.5 3.4-3.3-4.5 3-0.6 0.4 1.4-1 2.9-2 4.4-2.9 1.1-0.7 2.3-1.3 3.4-1.9 2.1-1.1 4.8-1.1-0.7 0.1 2.1-0.5 4.2-1.6 6.3-2.1 1.3-0.4 2.6-0.7 3.9-1 2.6-0.5 4.6 0.5-0.8 0 2.2 0.2 4.7-0.4 6.9-0.4h731c1.1 0 2.3 0.2 3.4 0.2 2.5 0.3 1.8 0.2-2.1-0.3 0.9 0.1 1.8 0.3 2.7 0.5 2.6 0.5 5.2 1.3 7.7 2.2 0.4 0.2 0.8 0.3 1.2 0.5 2.3 0.9 1.6 0.6-1.8-0.8 0.8 0.7 2.5 1.2 3.5 1.8 1.9 1 3.8 2.2 5.6 3.4 0.4 0.3 0.7 0.5 1.1 0.8 1.9 1.4 1.4 1-1.6-1.2 0.8 1.3 2.8 2.4 3.9 3.5 0.9 0.9 1.8 1.8 2.7 2.8 1.4 1.6 2.5 4.5-0.3-0.6 1.2 2.3 3 4.3 4.3 6.5 0.5 0.9 1 1.9 1.5 2.9 1.1 1.9 0.7 3.9-0.4-1.3 0.6 3 2.1 5.9 2.8 8.9 0.3 1.2 0.3 2.9 0.8 4-0.1-1.1-0.3-2.3-0.4-3.4l0.3 2.7c0.1 1.4 0.1 2.8 0.1 4.2V832.9c0 1.4-0.2 2.7-0.2 4.1-0.3 5 1.2-5.5 0.1-0.7-0.6 2.6-1.1 5.2-2 7.8-0.4 1.2-1.1 2.5-1.4 3.7 1.2-5.6 1.2-2.8 0.1-0.7-1 1.9-2.1 3.8-3.3 5.6-0.7 1.1-1.6 2.1-2.3 3.2 2.8-5.1 1.7-2.2 0.3-0.6-1.7 1.9-3.7 3.7-5.6 5.5-3.4 3.3 4.5-3 0.6-0.4-1.1 0.7-2.1 1.5-3.2 2.2-1.9 1.2-3.8 2.1-5.7 3.2-4.2 2.3 5.2-1.8 0.7-0.2-1.3 0.4-2.5 0.9-3.8 1.3-2.4 0.7-5.6 0.8-7.8 1.8 1.1-0.1 2.3-0.3 3.4-0.4l-2.7 0.3h-4.4c-12 0.1-23.6 10.5-23 23 0.6 12.3 10.1 23.1 23 23 46-0.5 82.9-38.2 83-84.1v-32.1-155.3-187-110.7c0-7.9-0.6-15.7-2.4-23.4-6.3-27-26.7-48.2-52.1-58.2-12.8-5-26-5.2-39.4-5.2H152.9c-2.2 0-4.4 0-6.6 0.1-27.8 1.3-53.1 16-68 39.6C67.5 315.6 66 334.5 66 354.1v459.5c0 13.1-0.6 26.2 2.7 39 9.6 37.2 44.4 62 82.1 62.1H877.8c12 0 23.6-10.6 23-23-0.3-12.5-9.8-23.1-22.7-23.1z" p-id="30197" fill="#f93865"></path><path d="M339.7 281.6v-55.7V197c0-3.3 0.7-6.9 0.4-10 0.4 4.5-0.7 4.2-0.2 2.1 0.3-1.1 0.4-2.2 0.7-3.3 0.5-1.9 1-3.9 1.7-5.7 0.2-0.6 1.7-4.8 0.3-0.9-1.3 3.8 0.2-0.1 0.5-0.8 1-1.9 2.1-3.8 3.3-5.6 0.7-1 1.7-2.1 2.3-3.2-0.2 0.4-3.7 4.3-1.1 1.6 1.5-1.6 2.9-3.2 4.5-4.7 0.6-0.6 1.3-1.1 1.9-1.7 3.3-3.1-3.7 2.4-1.1 0.8 2-1.3 3.9-2.7 6-3.9 1-0.6 6.9-3.1 3.1-1.8-3.8 1.4 2.3-0.8 3.5-1.1 2.1-0.7 4.3-1.1 6.5-1.6 3.7-0.9-1.6 0.3-2.1 0.2 1.4 0.2 3.3-0.3 4.8-0.4 2.9-0.1 5.7 0 8.6 0h262.2c1.4 0 2.8 0 4.2 0.1 1.1 0.1 2.3 0.2 3.4 0.3 3.2 0.2-6.1-1.1-1.4-0.1 2 0.4 3.9 0.8 5.9 1.4 1.9 0.5 3.7 1.6 5.6 2-5.1-1.1-3.3-1.5-1.3-0.4 1.3 0.7 2.7 1.4 4 2.2 1.5 0.9 2.9 1.9 4.4 2.9 3.9 2.6-4-3.6-0.6-0.4 0.6 0.6 1.3 1.1 1.9 1.7 1.6 1.5 3 3.1 4.5 4.7 1.2 1.3 1.3 2.8-1.1-1.6 0.6 1.1 1.5 2.1 2.3 3.2 1.2 1.8 2.3 3.7 3.3 5.6 0.3 0.5 0.7 1.9 1.1 2.4-2.7-3-1.5-4-0.6-1.2 0.6 1.9 1.3 3.8 1.8 5.7 0.3 1.1 0.5 2.2 0.7 3.3 1.1 5.6-0.2-4.7 0.1-0.1 0.3 6.9 0.3 13.8 0.3 20.8V282c0 12 10.6 23.6 23 23 12.5-0.6 23-10.1 23-23v-58.6c0-25.8 1.8-52.2-13.7-74.7-12.5-18.2-31.6-32.1-53.6-35.9-6.9-1.2-13.7-1.6-20.6-1.6H389.1c-20.1 0-39.8 1.7-57.1 13.3-18.5 12.4-32.7 31.8-36.5 54-1.6 9.7-1.6 18.9-1.6 28.6v74.7c0 12 10.6 23.6 23 23 12.3-0.8 22.8-10.3 22.8-23.2zM89.1 627.1H249.3c12 0 23.6-10.6 23-23-0.6-12.5-10.1-23-23-23H89.1c-12 0-23.6 10.6-23 23 0.6 12.4 10.1 23 23 23zM765.1 629H925.3c12 0 23.6-10.6 23-23-0.6-12.5-10.1-23-23-23H765.1c-12 0-23.6 10.6-23 23 0.5 12.5 10.1 23 23 23z" p-id="30198" fill="#f93865"></path><path d="M370.4 459.4h285.3" p-id="30199" fill="#f93865"></path><path d="M370.4 482.4H655.8c12 0 23.6-10.6 23-23-0.6-12.5-10.1-23-23-23H370.4c-12 0-23.6 10.6-23 23 0.5 12.4 10.1 23 23 23z" p-id="30200" fill="#f93865"></path><path d="M370.4 605.8h285.3" p-id="30201" fill="#f93865"></path><path d="M370.4 628.8H655.8c12 0 23.6-10.6 23-23-0.6-12.5-10.1-23-23-23H370.4c-12 0-23.6 10.6-23 23 0.5 12.5 10.1 23 23 23z" p-id="30202" fill="#f93865"></path><path d="M415.8 375.9v69.8" p-id="30203" fill="#f93865"></path><path d="M392.8 375.9v69.8c0 12 10.6 23.6 23 23 12.5-0.6 23-10.1 23-23v-69.8c0-12-10.6-23.6-23-23-12.5 0.5-23 10.1-23 23z" p-id="30204" fill="#f93865"></path><path d="M610.5 375.8v69.8" p-id="30205" fill="#f93865"></path><path d="M587.5 375.8v69.8c0 12 10.6 23.6 23 23 12.5-0.6 23-10.1 23-23v-69.8c0-12-10.6-23.6-23-23-12.5 0.5-23 10.1-23 23z" p-id="30206" fill="#f93865"></path><path d="M514.7 466.9v292.9" p-id="30207" fill="#f93865"></path><path d="M491.7 466.9V759.8c0 12 10.6 23.6 23 23 12.5-0.6 23-10.1 23-23v-99.3V503v-36.1c0-12-10.6-23.6-23-23-12.5 0.5-23 10.1-23 23z" p-id="30208" fill="#f93865"></path></svg>