<?xml version="1.0" standalone="no"?><!DOCTYPE svg PUBLIC "-//W3C//DTD SVG 1.1//EN" "http://www.w3.org/Graphics/SVG/1.1/DTD/svg11.dtd"><svg t="1610096632987" class="icon" viewBox="0 0 1024 1024" version="1.1" xmlns="http://www.w3.org/2000/svg" p-id="22706" xmlns:xlink="http://www.w3.org/1999/xlink" width="128" height="128"><defs><style type="text/css"></style></defs><path d="M672.3 462.4c0-27.4 5.7-52.3 15.3-71.9 0.3-0.6 0.4-1.2 0.7-1.8-46.5 8.4-99 13.6-154.4 15.1 0 0.2-0.1 0.4-0.1 0.5h-0.3c-4.7 20.2-6.7 43.3-6.1 66 14.7 13.3 24.9 31.5 27.8 52.1 47.7 2.1 92.9 6.7 133.4 14.1-10.3-20.1-16.3-45.7-16.3-74.1zM469.3 476.9c-31.8 0-57.8 25.9-57.8 57.8 0 31.8 25.9 57.8 57.8 57.8s57.8-25.9 57.8-57.8c-0.1-31.9-26-57.8-57.8-57.8zM440.6 616.5v36.6l21-14c2.4-1.6 5.2-2.4 8.1-2.4s5.6 0.8 8.1 2.4l21 14v-36.9c-9.2 3.3-19.1 5.2-29.4 5.2-10.2 0.1-19.8-1.7-28.8-4.9zM248.7 375.1c-19.9 2.7-41.1 37.6-41.1 87 0 50 21.7 85.2 41.9 87.1 32.1-8.8 68.6-15.7 108.6-20.6 8.1-1 16.2-1.6 24.3-2.4 2.2-22.2 13-41.9 28.9-56.1-0.6-23.6 1.3-47.4 5.9-68.9-63-3.9-120.9-12.8-168.5-26.1zM498.3 453c0.5-16.7 2.2-33.2 5.4-48.7v-0.1l-20.3-0.2c-11.1-0.2-23.7-0.5-36.6-1.1-3.7 15.4-5.8 32.5-6.4 50 9.1-3.2 18.9-5.1 29-5.1 10.1 0.1 19.8 1.9 28.9 5.2z" p-id="22707" fill="#e9b120"></path><path d="M512.9 64.2c-247 0-447.3 200.3-447.3 447.3s200.3 447.3 447.3 447.3 447.3-200.3 447.3-447.3S759.9 64.2 512.9 64.2z m217.5 572.5c-2.9 0-5.7-0.8-8-2.4-59.1-39.2-115.9-64.6-169.7-76.7-4.4 16-13 30.2-24.9 41.1v81.6c0 5.4-3 10.3-7.7 12.8-2.1 1.1-4.5 1.7-6.9 1.7-2.8 0-5.6-0.8-8.1-2.4l-35.5-23.7-35.5 23.7c-4.5 3-10.2 3.2-14.9 0.7-4.7-2.5-7.7-7.4-7.7-12.8v-81c-12.9-11.5-22.6-26.8-27.1-44.2-7.7 0.7-15.3 1.4-23 2.3-39.4 4.8-75.2 11.6-106.4 20.3-1.3 0.4-2.6 0.5-3.9 0.5-40.7 0-72.6-51-72.6-116.2s31.9-115.9 72.6-115.9c2.3 0 4.6 0.3 6.5 1.3 49.8 13.7 111.5 22.6 178.6 25.8 0 0 33.4 1.5 47.5 1.7l28.9 0.3c2.8 0 9.3-0.3 9.3-0.3 73.5-1.3 146.5-3.2 200.2-23.1 7.5-2.8 14.7-5.6 22.7-5.6 40.7 0 72.6 51 72.6 116.2 0.1 84.2-34.9 174.3-87 174.3z" p-id="22708" fill="#e9b120"></path><path d="M744.9 375.3c-20.6 0-43.6 35.8-43.6 87.1s23 87.1 43.6 87.1 43.6-35.8 43.6-87.1-23-87.1-43.6-87.1zM723 573.4c-22.4-8.1-48.4-10.4-75.4-14 28.3 12.8 57.2 28.6 86.5 47.8 10.3-2.4 21.1-14.5 30.4-32.9-6.2 2.7-12.8 4.3-19.6 4.3-7.7 0-14.7-2.6-21.9-5.2z" p-id="22709" fill="#e9b120"></path></svg>