<?xml version="1.0" standalone="no"?><!DOCTYPE svg PUBLIC "-//W3C//DTD SVG 1.1//EN" "http://www.w3.org/Graphics/SVG/1.1/DTD/svg11.dtd"><svg t="1607610534874" class="icon" viewBox="0 0 1024 1024" version="1.1" xmlns="http://www.w3.org/2000/svg" p-id="42242" width="32" height="32" xmlns:xlink="http://www.w3.org/1999/xlink"><defs><style type="text/css"></style></defs><path d="M640 21.333333c-42.666667-12.8-85.333333-21.333333-128-21.333333s-85.333333 8.533333-128 21.333333C226.133333 72.533333 110.933333 217.6 110.933333 392.533333c0 179.2 243.2 486.4 320 580.266667 8.533333 8.533333 12.8 17.066667 21.333334 21.333333 17.066667 17.066667 38.4 29.866667 64 29.866667s46.933333-12.8 64-29.866667c4.266667-4.266667 8.533333-12.8 21.333333-25.6 76.8-93.866667 320-401.066667 320-580.266666-8.533333-170.666667-123.733333-315.733333-281.6-366.933334z m-128 541.866667c-98.133333 0-179.2-76.8-179.2-174.933333C332.8 294.4 413.866667 213.333333 512 213.333333c98.133333 0 179.2 76.8 179.2 174.933334s-81.066667 174.933333-179.2 174.933333z m0 0" fill="#ffffff" p-id="42243"></path></svg>