<?xml version="1.0" standalone="no"?><!DOCTYPE svg PUBLIC "-//W3C//DTD SVG 1.1//EN" "http://www.w3.org/Graphics/SVG/1.1/DTD/svg11.dtd"><svg t="1610095851301" class="icon" viewBox="0 0 1024 1024" version="1.1" xmlns="http://www.w3.org/2000/svg" p-id="9133" width="128" height="128" xmlns:xlink="http://www.w3.org/1999/xlink"><defs><style type="text/css"></style></defs><path d="M512.9 64.2c-247 0-447.3 200.3-447.3 447.3s200.3 447.3 447.3 447.3 447.3-200.3 447.3-447.3S759.9 64.2 512.9 64.2z m224.7 625.1c0 23.1-18.8 41.9-41.9 41.9H332.1c-23.1 0-41.9-18.8-41.9-41.9V367.7c0-23.1 18.8-41.9 41.9-41.9H416v-28h28v28h55.9v-28h28v28h55.9v-28h28v28h83.9c23.1 0 41.9 18.8 41.9 41.9v321.6z" p-id="9134" fill="#7fbaf9"></path><path d="M695.6 353.7h-83.9v28h-28v-28h-55.9v28h-28v-28H444v28h-28v-28h-83.9c-7.7 0-14 6.3-14 14v321.6c0 7.7 6.3 14 14 14h363.5c7.7 0 14-6.3 14-14V367.7c0-7.7-6.2-14-14-14zM444 633.4h-55.9v-28H444v28z m0-83.9h-55.9v-28H444v28z m0-83.9h-55.9v-28H444v28z m97.8 167.8h-55.9v-28h55.9v28z m0-83.9h-55.9v-28h55.9v28z m0-83.9h-55.9v-28h55.9v28z m97.9 167.8h-55.9v-28h55.9v28z m0-83.9h-55.9v-28h55.9v28z m0-83.9h-55.9v-28h55.9v28z" p-id="9135" fill="#7fbaf9"></path></svg>