<?xml version="1.0" standalone="no"?><!DOCTYPE svg PUBLIC "-//W3C//DTD SVG 1.1//EN" "http://www.w3.org/Graphics/SVG/1.1/DTD/svg11.dtd"><svg t="1605511246168" class="icon" viewBox="0 0 1024 1024" version="1.1" xmlns="http://www.w3.org/2000/svg" p-id="6423" width="64" height="64" xmlns:xlink="http://www.w3.org/1999/xlink"><defs><style type="text/css"></style></defs><path d="M246.946298 512.512676c-12.19781 0-21.75242-9.555633-21.75242-21.753443L225.193879 468.984301c0-12.198833 9.555633-21.753443 21.75242-21.753443l21.774933 0c12.091386 0 21.648043 9.576099 21.754466 21.801539l0 21.726837c0 12.198833-9.555633 21.753443-21.754466 21.753443L246.946298 512.512676z" p-id="6424" fill="#08B960"></path><path d="M246.946298 643.002636c-12.19781 0-21.75242-9.556657-21.75242-21.754466l0-21.769816c0-12.20088 9.555633-21.757536 21.75242-21.757536l21.774933 0c11.68104 0 21.643949 9.986445 21.754466 21.809725l0 21.717627c0 12.198833-9.555633 21.754466-21.754466 21.754466L246.946298 643.002636z" p-id="6425" fill="#08B960"></path><path d="M355.666442 905.046794c-12.198833 0-21.754466-9.556657-21.754466-21.754466l0-21.774933c0-12.196787 9.555633-21.75242 21.754466-21.75242l21.775956 0c11.587919 0 21.75242 10.163477 21.75242 21.75242l0 21.774933c0 12.198833-9.555633 21.754466-21.75242 21.754466L355.666442 905.046794z" p-id="6426" fill="#08B960"></path><path d="M771.035638 643.002636c-12.198833 0-21.753443-9.556657-21.753443-21.754466l0-21.769816c0-12.20088 9.555633-21.757536 21.753443-21.757536l21.769816 0c11.184737 0 21.75856 10.573823 21.75856 21.757536l0 21.769816c0 12.198833-9.55768 21.754466-21.75856 21.754466L771.035638 643.002636z" p-id="6427" fill="#08B960"></path><path d="M355.666442 774.555811c-12.198833 0-21.754466-9.556657-21.754466-21.757536l0-21.769816c0-12.198833 9.555633-21.753443 21.754466-21.753443l21.775956 0c12.19781 0 21.75242 9.555633 21.75242 21.753443l0 21.769816c0 12.20088-9.555633 21.757536-21.75242 21.757536L355.666442 774.555811z" p-id="6428" fill="#08B960"></path><path d="M246.946298 905.046794c-12.19781 0-21.75242-9.556657-21.75242-21.754466l0-21.774933c0-12.196787 9.555633-21.75242 21.75242-21.75242l21.774933 0c11.478426 0 21.643949 10.18906 21.754466 21.804608l0 21.722744c0 12.198833-9.555633 21.754466-21.754466 21.754466L246.946298 905.046794z" p-id="6429" fill="#08B960"></path><path d="M246.946298 774.555811c-12.19781 0-21.75242-9.556657-21.75242-21.757536l0-21.769816c0-12.198833 9.555633-21.753443 21.75242-21.753443l21.774933 0c12.091386 0 21.648043 9.576099 21.754466 21.801539l0 21.721721c0 12.20088-9.555633 21.757536-21.754466 21.757536L246.946298 774.555811z" p-id="6430" fill="#08B960"></path><path d="M574.171991 905.046794c-12.20088 0-21.75856-9.556657-21.75856-21.754466l0-21.774933c0-12.196787 9.55768-21.75242 21.75856-21.75242l21.769816 0c11.590989 0 21.75856 10.163477 21.75856 21.75242l0 21.774933c0 12.198833-9.55768 21.754466-21.75856 21.754466L574.171991 905.046794z" p-id="6431" fill="#08B960"></path><path d="M574.171991 774.555811c-12.20088 0-21.75856-9.556657-21.75856-21.757536l0-21.769816c0-12.198833 9.55768-21.753443 21.75856-21.753443l21.769816 0c12.20088 0 21.75856 9.555633 21.75856 21.753443l0 21.769816c0 12.20088-9.55768 21.757536-21.75856 21.757536L574.171991 774.555811z" p-id="6432" fill="#08B960"></path><path d="M771.035638 905.046794c-12.198833 0-21.753443-9.556657-21.753443-21.754466l0-21.774933c0-12.196787 9.555633-21.75242 21.753443-21.75242l21.769816 0c11.184737 0 21.75856 10.571776 21.75856 21.75242l0 21.774933c0 12.198833-9.55768 21.754466-21.75856 21.754466L771.035638 905.046794z" p-id="6433" fill="#08B960"></path><path d="M771.035638 774.555811c-12.198833 0-21.753443-9.556657-21.753443-21.757536l0-21.769816c0-12.198833 9.555633-21.753443 21.753443-21.753443l21.769816 0c11.794627 0 21.75856 9.961886 21.75856 21.753443l0 21.769816c0 12.20088-9.55768 21.757536-21.75856 21.757536L771.035638 774.555811z" p-id="6434" fill="#08B960"></path><path d="M355.666442 643.002636c-12.198833 0-21.754466-9.556657-21.754466-21.754466l0-21.769816c0-12.20088 9.555633-21.757536 21.754466-21.757536l21.775956 0c11.791557 0 21.75242 9.963932 21.75242 21.757536l0 21.769816c0 12.198833-9.555633 21.754466-21.75242 21.754466L355.666442 643.002636z" p-id="6435" fill="#08B960"></path><path d="M117.53388 1013.766938 117.53388 424.3835c0-45.762253 35.951817-83.956134 81.8471-86.949304l5.102205-0.333598 0-86.61673c0-24.00267 19.527752-43.529399 43.529399-43.529399l43.420929 0L291.433512 31.845289c0-12.19781 9.555633-21.75242 21.753443-21.75242 12.20088 0 21.75856 9.555633 21.75856 21.75242l0 176.171372 43.556005 0c24.000624 0 43.527352 19.526729 43.527352 43.527352l0 86.729294 5.214768 0.232291c45.065382 2.001587 81.730443 41.001833 81.730443 86.940095l0 174.043918 152.290475 0L661.264559 469.000674l86.950328 0L748.214886 403.687132l131.656529 0 0 65.313541 23.896246 0 0 544.766264L117.53388 1013.766938zM704.778608 971.44811l153.35676 0L858.135368 512.512676 704.778608 512.512676 704.778608 971.44811zM508.975107 971.44811l152.290475 0L661.265582 644.067898 508.975107 644.067898 508.975107 971.44811zM202.346521 381.889687c-23.609721 0-43.554982 19.946284-43.554982 43.556005l0 545.874505 305.610396 0L464.401935 425.445692c0-24.678052-18.652825-43.402509-43.388183-43.556005L202.346521 381.889687zM268.720208 251.401774c-11.80793 0-21.784142 9.973142-21.784142 21.779026l0 65.330938 130.515542 0 0-65.330938c0-11.80486-9.977235-21.779026-21.786189-21.779026L268.720208 251.401774z" p-id="6436" fill="#08B960"></path><path d="M355.666442 512.512676c-12.198833 0-21.754466-9.555633-21.754466-21.753443L333.911976 468.984301c0-12.198833 9.555633-21.753443 21.754466-21.753443l21.775956 0c12.19781 0 21.75242 9.555633 21.75242 21.753443l0 21.774933c0 12.198833-9.555633 21.753443-21.75242 21.753443L355.666442 512.512676z" p-id="6437" fill="#08B960"></path></svg>