<?xml version="1.0" standalone="no"?><!DOCTYPE svg PUBLIC "-//W3C//DTD SVG 1.1//EN" "http://www.w3.org/Graphics/SVG/1.1/DTD/svg11.dtd"><svg t="1607609217748" class="icon" viewBox="0 0 1024 1024" version="1.1" xmlns="http://www.w3.org/2000/svg" p-id="26212" xmlns:xlink="http://www.w3.org/1999/xlink" width="32" height="32"><defs><style type="text/css"></style></defs><path d="M923.10392983 547.79139413H790.37750992a22.49389701 22.49389701 0 0 1-22.493897-22.49389701V400.15189333a67.6059667 67.6059667 0 0 0-24.85513482-52.56861013l-90.96979342-73.3226477A213.62988373 213.62988373 0 0 1 324.34373215 512v13.79459982a22.49389701 22.49389701 0 0 1-22.493897 22.49389701H169.12341523a67.6059667 67.6059667 0 0 0-67.23313968 67.108864v271.66662352a67.6059667 67.6059667 0 0 0 67.6059667 67.6059667h243.82887253A44.98779402 44.98779402 0 0 0 458.43718448 909.68215703v-71.20996124a85.12883675 85.12883675 0 0 1 85.12883674-85.12883674 90.0998637 90.0998637 0 0 1 90.0998637 90.0998637V909.68215703a44.98779402 44.98779402 0 0 0 44.98779401 44.98779402h244.4502509a67.6059667 67.6059667 0 0 0 67.6059667-67.6059667V615.39736083a67.6059667 67.6059667 0 0 0-67.6059667-67.6059667zM552.7624211 138.30304805a11.18481067 11.18481067 0 0 1-6.7108864-10.19060527v-64.99617753a11.18481067 11.18481067 0 0 1 4.22537292-8.6992972 6.58661072 6.58661072 0 0 0-4.22537292-1.61558375 6.7108864 6.7108864 0 0 0-6.7108864 6.58661072v84.63173405c4.47392427 2.11268645 8.94784853 4.47392427 13.29749712 6.95943775z" fill="#ffffff" p-id="26213"></path><path d="M552.7624211 59.38799502v78.91505303c17.2743187 6.95943775 62.13783703 22.9909997 79.28788005 8.94784854 14.66452955-11.68191337 47.84613452-7.82936747 68.6001721-3.97682157a11.18481067 11.18481067 0 0 0 12.4275674-12.4275674 340.26679562 340.26679562 0 0 1 3.72827023-74.56540445 11.18481067 11.18481067 0 0 0-6.33805938-11.80618904c-24.85513482-11.55763769-75.18678282-5.96523235-93.82813393 4.72247562-14.04315117 8.07791882-42.00517783 5.21957831-58.40956682 2.48551348a11.06053499 11.06053499 0 0 0-8.82357285 2.3612378 6.58661072 6.58661072 0 0 1 3.3554432 5.34385399z" fill="#ffffff" p-id="26214"></path><path d="M540.0576 142.1312v53.5552a9.216 9.216 0 0 0 5.5296 8.3968v-65.024a5.4272 5.4272 0 0 0-2.048-4.1984 9.216 9.216 0 0 0-3.4816 7.2704z" fill="#ffffff" p-id="26215"></path><path d="M540.0576 142.1312v53.5552a9.216 9.216 0 0 0 5.5296 8.3968v-65.024a5.4272 5.4272 0 0 0-2.048-4.1984 9.216 9.216 0 0 0-3.4816 7.2704z" fill="#ffffff" p-id="26216"></path><path d="M541.91039097 504.01676386m-4.99453721 0a4.99453718 4.99453718 0 1 0 9.98907436 0 4.99453718 4.99453718 0 1 0-9.98907436 0Z" fill="#ffffff" p-id="26217"></path><path d="M627.0976 316.2112a176.4352 176.4352 0 0 0-81.92-101.6832v35.9424z" fill="#ffffff" p-id="26218"></path><path d="M696.30396989 466.81419284a55.05618205 55.05618205 0 0 0-2.40350038-16.02333586l-25.63733739-20.57396325V419.06465195c-1.12163351-0.64093344-2.2753137-1.24982019-3.42899387-1.79461361v12.56229531L615.86682383 469.63429996a17.43338945 17.43338945 0 0 0-6.40933435 13.4916488v28.84200457A55.08822874 55.08822874 0 0 0 696.30396989 466.81419284z m-29.61112469 3.71741393a16.02333586 16.02333586 0 1 1-16.02333586 16.02333587 16.02333586 16.02333586 0 0 1 15.95924253-16.02333587z" fill="#ffffff" p-id="26219"></path><path d="M661.13080889 336.77129955a213.50560805 213.50560805 0 0 0-9.32067556-62.13783703l-99.42053925-79.78498275V151.60054518c-4.34964859-2.48551348-8.82357285-4.84675129-13.29749713-6.95943775v48.71606425L349.19886697 347.70755888a67.6059667 67.6059667 0 0 0-24.85513482 52.32005877v111.84810667A213.62988373 213.62988373 0 0 0 661.13080889 336.77129955z m-114.83072284 14.4159782a62.13783703 62.13783703 0 1 1-62.13783704 62.13783703 62.13783703 62.13783703 0 0 1 61.88928569-62.13783703z" fill="#ffffff" p-id="26220"></path></svg>