<?xml version="1.0" standalone="no"?><!DOCTYPE svg PUBLIC "-//W3C//DTD SVG 1.1//EN" "http://www.w3.org/Graphics/SVG/1.1/DTD/svg11.dtd"><svg t="1605512369049" class="icon" viewBox="0 0 1024 1024" version="1.1" xmlns="http://www.w3.org/2000/svg" p-id="14404" xmlns:xlink="http://www.w3.org/1999/xlink" width="64" height="64"><defs><style type="text/css"></style></defs><path d="M184.32 243.712H61.44c-34.816 0-61.44 26.624-61.44 61.44v655.36c0 34.816 26.624 61.44 61.44 61.44h122.88c34.816 0 61.44-26.624 61.44-61.44v-655.36c0-32.768-26.624-61.44-61.44-61.44zM204.8 962.56c0 10.24-8.192 20.48-20.48 20.48H61.44c-10.24 0-20.48-8.192-20.48-20.48V307.2c0-10.24 8.192-20.48 20.48-20.48h122.88c10.24 0 20.48 8.192 20.48 20.48v655.36zM962.56 0h-122.88c-34.816 0-61.44 26.624-61.44 61.44v899.072c0 34.816 26.624 61.44 61.44 61.44h122.88c34.816 0 61.44-26.624 61.44-61.44V61.44c0-32.768-28.672-61.44-61.44-61.44z m20.48 960.512c0 10.24-8.192 20.48-20.48 20.48h-122.88c-10.24 0-20.48-8.192-20.48-20.48V61.44c0-10.24 8.192-20.48 20.48-20.48h122.88c10.24 0 20.48 8.192 20.48 20.48v899.072zM573.44 468.992h-122.88c-34.816 0-61.44 26.624-61.44 61.44V962.56c0 34.816 26.624 61.44 61.44 61.44h122.88c34.816 0 61.44-26.624 61.44-61.44V530.432c0-34.816-26.624-61.44-61.44-61.44zM593.92 962.56c0 10.24-8.192 20.48-20.48 20.48h-122.88c-10.24 0-20.48-8.192-20.48-20.48V530.432c0-10.24 8.192-20.48 20.48-20.48h122.88c10.24 0 20.48 8.192 20.48 20.48V962.56z" p-id="14405" fill="#1180f3"></path></svg>