<?xml version="1.0" standalone="no"?><!DOCTYPE svg PUBLIC "-//W3C//DTD SVG 1.1//EN" "http://www.w3.org/Graphics/SVG/1.1/DTD/svg11.dtd"><svg t="1610095958203" class="icon" viewBox="0 0 1024 1024" version="1.1" xmlns="http://www.w3.org/2000/svg" p-id="10407" xmlns:xlink="http://www.w3.org/1999/xlink" width="128" height="128"><defs><style type="text/css"></style></defs><path d="M1022.888165 512.555917c0 282.40608-229.038002 511.444083-511.444082 511.444083S0 796.073833 0 512.555917C0 231.261672 227.926167 0 511.444083 0S1022.888165 229.038002 1022.888165 512.555917zM655.982628 234.597177v-27.795874c0-14.453855-13.34202-25.572204-27.795874-25.572204s-27.795874 11.11835-27.795875 25.572204V234.597177H422.497286v-27.795874c0-26.684039-27.795874-25.572204-27.795874-25.572204-14.453855 0-27.795874 11.11835-27.795875 25.572204V234.597177c-73.381107 0-133.420195 54.479913-133.420195 122.301846v265.728556C233.485342 690.449511 293.52443 746.04126 366.905537 746.04126h289.077091c73.381107 0 133.420195-55.591748 133.420195-123.413681V356.899023c0-66.710098-55.591748-122.301846-133.420195-122.301846z m76.716612 108.959826c-3.335505-5.559175-10.006515-6.67101-15.56569-2.22367l-67.821932 62.262758-30.019544-33.355049c-4.44734-4.44734-11.11835-4.44734-15.56569 0-3.335505 5.559175-3.335505 13.34202 0 18.901195l35.578719 40.026058c2.22367 2.22367 3.335505 3.335505 5.559175 3.335505h2.22367c2.22367 0 3.335505-1.111835 5.559175-2.22367l75.604777-68.933767c7.782845-3.335505 7.782845-11.11835 4.44734-17.78936z m-393.589577 77.828448h126.749186c10.006515 0 17.789359-7.782845 17.789359-17.78936 0-10.006515-7.782845-17.789359-17.789359-17.789359H339.109663c-10.006515 0-17.789359 7.782845-17.789359 17.789359 0 10.006515 7.782845 17.789359 17.789359 17.78936z m0 210.136807h206.801303c10.006515 0 17.789359-7.782845 17.78936-17.789359 0-10.006515-7.782845-17.789359-17.78936-17.789359H339.109663c-10.006515 0-17.789359 7.782845-17.789359 17.789359 0 8.89468 7.782845 17.789359 17.789359 17.789359z m0-106.736156h166.775245c10.006515 0 17.789359-7.782845 17.789359-17.789359 0-10.006515-7.782845-17.789359-17.789359-17.78936h-166.775245c-10.006515 0-17.789359 7.782845-17.789359 17.78936 0 8.89468 7.782845 17.789359 17.789359 17.789359z" fill="#f67ca1" p-id="10408"></path></svg>