<?xml version="1.0" standalone="no"?><!DOCTYPE svg PUBLIC "-//W3C//DTD SVG 1.1//EN" "http://www.w3.org/Graphics/SVG/1.1/DTD/svg11.dtd"><svg t="1605526680181" class="icon" viewBox="0 0 1024 1024" version="1.1" xmlns="http://www.w3.org/2000/svg" p-id="19686" xmlns:xlink="http://www.w3.org/1999/xlink" width="64" height="64"><defs><style type="text/css"></style></defs><path d="M482.833 453.667h58.333V862h-58.333z" fill="#6f6f6f" p-id="19687"></path><path d="M512 298.111c-96.496 0-175 78.509-175 175v272.222h58.333V473.111c0-64.334 52.338-116.667 116.667-116.667s116.667 52.333 116.667 116.667v272.222H687V473.111c0-96.491-78.504-175-175-175z" fill="#6f6f6f" p-id="19688"></path><path d="M512 162c-176.908 0-320.833 143.925-320.833 320.833v165.278H249.5V482.833c0-144.741 117.759-262.5 262.5-262.5s262.5 117.759 262.5 262.5v165.278h58.333V482.833C832.833 305.925 688.908 162 512 162z" fill="#6f6f6f" p-id="19689"></path></svg>