<?xml version="1.0" standalone="no"?><!DOCTYPE svg PUBLIC "-//W3C//DTD SVG 1.1//EN" "http://www.w3.org/Graphics/SVG/1.1/DTD/svg11.dtd"><svg t="1610096117774" class="icon" viewBox="0 0 1024 1024" version="1.1" xmlns="http://www.w3.org/2000/svg" p-id="19085" xmlns:xlink="http://www.w3.org/1999/xlink" width="128" height="128"><defs><style type="text/css"></style></defs><path d="M230.465747 352.000181v44.80018c0 12.799639 12.799639 19.200903 19.200903 19.200903h19.200903v-83.201986h-19.200903c-6.404154 0-19.200903 6.401264-19.200903 19.200903zM774.463399 332.799278h-19.200904v89.600361h19.200904c12.805419 0 19.203793-12.799639 19.203793-19.200903V351.997291c-0.00289-12.796749-6.401264-19.198013-19.203793-19.198013z" fill="#f4ea2a" p-id="19086"></path><path d="M512.063579 0C230.465747 0 0.063579 230.399278 0.063579 512c0 281.600722 230.405057 512 512 512 281.597833 0 512-230.399278 512-512C1024.063579 230.399278 793.664302 0 512.063579 0z m320.063218 397.846527c0 38.401806-25.662857 62.954918-57.663398 62.954918h-19.200904c0 121.600903-96.001626 223.998013-217.599638 236.797652v64.001084h64.001083c6.401264 0 19.203793 6.398374 19.203793 12.799638l19.200904 44.800181v19.206683c-6.401264 6.398374-12.799639 6.398374-19.200904 6.398374h-204.8c-6.398374 0-12.799639-6.398374-19.203793-6.398374-6.401264-6.401264-6.401264-12.802529 0-19.206683l19.203793-44.800181c0-6.401264 12.802529-12.799639 19.200904-12.799638h64.001083v-64.001084c-121.600903-12.802529-217.602529-115.196749-217.602528-236.797652H249.66954c-38.398916 0-64.001084-32.000542-64.001084-64.001084v-44.80018c0-38.398916 31.994762-64.001084 64.001084-64.001084h19.200903v-19.200903c0-25.599278 19.203793-44.800181 44.80018-44.800181h390.401987c25.596388 0 44.800181 19.200903 44.800181 44.800181v19.200903h19.200903c38.401806 0 64.001084 32.000542 64.001084 64.001084v44.80018l0.052019 1.046166z" fill="#f4ea2a" p-id="19087"></path><path d="M552.36987 308.543832v201.485214h-53.207078v-155.153354c-6.551542 4.412971-15.498863 8.380888-26.850631 11.900861-11.354658 3.522863-21.772969 5.707674-31.269382 6.554432v-35.257528c29.90532-6.788519 55.773364-16.628838 77.604132-29.529625h33.722959z" fill="#f4ea2a" p-id="19088"></path></svg>