<?xml version="1.0" standalone="no"?><!DOCTYPE svg PUBLIC "-//W3C//DTD SVG 1.1//EN" "http://www.w3.org/Graphics/SVG/1.1/DTD/svg11.dtd"><svg t="1609830239216" class="icon" viewBox="0 0 1024 1024" version="1.1" xmlns="http://www.w3.org/2000/svg" p-id="5124" width="128" height="128" xmlns:xlink="http://www.w3.org/1999/xlink"><defs><style type="text/css"></style></defs><path d="M518.144 785.408H244.736c-23.04 0-23.552-0.512-23.552-24.576 0-65.536-0.512-130.56 0.512-195.584 0-10.752 2.048-21.504 6.656-31.744 28.16-65.536 58.368-131.072 87.04-196.608 5.632-12.288 12.8-16.896 26.112-16.896 119.808 0.512 240.128 0.512 359.936 0 13.824 0 20.48 5.12 25.6 17.408 27.136 66.048 54.784 131.584 81.92 197.12 3.584 8.192 5.632 17.92 5.632 27.136 0.512 67.584 0.512 135.168 0 202.24 0 19.968-1.536 20.992-22.016 20.992-91.648 0.512-182.784 0.512-274.432 0.512z m-1.024-10.752h268.288c12.8 0 18.944-2.56 18.432-17.408-0.512-60.928-0.512-121.856 0-182.784 0-12.8-4.096-17.408-16.896-16.896-41.984 0.512-83.968 1.024-125.952 0-17.408-0.512-24.064 4.608-27.136 22.528-10.24 61.952-70.656 103.936-132.608 93.696-50.688-8.192-88.576-44.544-96.768-95.744-2.56-15.36-8.192-20.48-24.064-20.48-43.008 1.024-86.016 1.024-129.024 0-14.848-0.512-19.968 4.608-19.456 19.456 0.512 58.88 1.024 117.248 0 176.128 0 16.384 4.096 21.504 20.992 21.504 88.064-0.512 176.128 0 264.192 0z m-203.776-227.328c29.184 0 52.736 0.512 76.8 0 15.872-0.512 22.016 4.096 22.528 20.992 2.56 54.272 50.688 97.28 106.496 97.792 56.832 0 105.472-43.008 107.52-97.792 0.512-17.408 7.68-21.504 23.04-20.992 23.552 1.024 47.616 0 75.264 0-8.192-25.6-14.336-47.104-22.016-68.608-1.024-3.072-8.704-6.144-13.312-6.144-112.64-0.512-225.792-0.512-338.432 0-5.12 0-12.8 3.584-14.336 7.168-8.704 20.992-15.36 42.496-23.552 67.584z m205.312-85.504h166.912c11.264 0 16.896-3.072 16.896-15.872-0.512-33.28-0.512-67.072 0-100.352 0-11.776-4.608-15.36-15.36-15.36-111.616 0-223.744 0.512-335.36 0-11.776 0-15.36 4.608-14.848 15.36 0.512 32.256 1.024 65.024 0 97.28-0.512 14.848 5.12 18.944 18.944 18.432 53.76 0 108.544 0.512 162.816 0.512z m285.696 85.504l-86.016-206.336-4.096 1.024c-0.512 5.12-1.024 10.24-1.024 15.36 0 24.064 1.536 48.128-0.512 72.192-2.56 35.84 5.12 69.632 16.896 102.912 2.048 5.632 7.68 13.824 12.288 13.824 18.944 2.048 38.4 1.024 62.464 1.024z m-572.928 0c22.528 0 39.424-0.512 56.832 0 12.288 0.512 17.408-5.12 20.992-15.872 11.264-33.792 19.456-68.096 16.896-104.448-1.536-21.504 0-42.496-0.512-64 0-4.608-1.024-9.216-1.536-13.312l-4.608-1.024-88.064 198.656z m327.168 306.176c27.136 2.048 52.736 6.144 77.824 5.632 16.384-0.512 33.28-6.144 48.64-12.8 10.24-4.608 14.336-3.584 20.992 5.632 11.264 16.896 23.552 33.792 37.888 48.128 22.016 22.528 50.176 33.792 82.432 34.304-28.16 14.336-57.344 23.04-88.576 25.6-6.144 0.512-14.336-5.632-18.432-11.264-7.168-9.216-14.336-10.24-24.064-7.68-11.776 3.072-23.552 5.12-35.84 6.144-6.144 0.512-12.8-2.048-18.432-4.608-37.888-19.968-62.976-51.712-82.432-89.088z m227.328 88.576c-3.584-4.608-4.608-6.144-5.632-6.656-34.816-14.848-59.392-40.96-79.872-72.192-2.56-3.584-11.264-6.144-15.872-4.608-27.136 10.752-54.784 14.848-83.968 9.728-6.656-1.024-13.312-1.024-21.504-2.048 22.528 40.96 58.88 85.504 115.712 65.536 11.776-4.096 20.48-1.024 29.184 8.704 4.608 5.12 13.824 9.216 20.48 8.704 13.312-0.512 26.112-4.096 41.472-7.168z m98.816-878.08c21.504 63.488 20.992 156.672-69.632 186.368 0-1.536-0.512-3.584 0-4.096 27.648-36.352 35.328-78.848 34.304-123.392 0-11.776 2.048-19.968 11.264-28.16 8.704-8.192 15.36-19.456 24.064-30.72zM839.68 224.256c42.496-10.752 57.856-98.816 37.888-135.68-7.168 10.24-18.432 18.944-18.432 28.16-1.024 36.352-4.608 71.68-19.456 107.52zM197.632 401.92l-11.264 34.304c-28.16-6.144-49.152-30.72-58.88-69.632 11.264 9.216 20.48 19.968 31.744 25.6 11.776 5.632 25.088 6.656 38.4 9.728z m518.144-198.144c11.264 19.968 5.632 48.128-14.336 69.632-1.536-7.68-4.096-13.312-2.56-18.432 2.56-8.192 8.192-15.872 10.752-24.064s3.584-16.896 6.144-27.136z" fill="#999999" p-id="5125"></path></svg>