<?xml version="1.0" standalone="no"?><!DOCTYPE svg PUBLIC "-//W3C//DTD SVG 1.1//EN" "http://www.w3.org/Graphics/SVG/1.1/DTD/svg11.dtd"><svg t="1607612802174" class="icon" viewBox="0 0 1024 1024" version="1.1" xmlns="http://www.w3.org/2000/svg" p-id="43370" xmlns:xlink="http://www.w3.org/1999/xlink" width="32" height="32"><defs><style type="text/css"></style></defs><path d="M512.172 0C229.245 0 0 229.275 0 511.963s229.275 511.962 512.172 511.962 512.172-229.155 512.172-511.918S794.89 0.045 512.172 0.045z m206.746 601.66H475.796c-1.871 0-2.904-1.496-4.775-1.706-0.674 0-1.018 0.854-1.872 0.854-5.988-0.165-10.478-4.776-15.703-7.336-4.49-2.395-9.565-2.904-12.979-6.152-2.724-2.725-2.904-7.006-4.955-10.479-3.592-6.152-8.712-11.601-8.712-18.951 0-0.854 1.018-1.363 1.018-2.216s-1.018-1.707-1.018-2.724V220.249c0-26.287 19.116-47.634 42.514-47.634s42.514 21.347 42.514 47.634v294.154h207.09c27.14 0 49.16 19.46 49.16 43.531s-22.02 43.727-49.16 43.727z" p-id="43371" fill="#ffffff"></path></svg>