<?xml version="1.0" standalone="no"?><!DOCTYPE svg PUBLIC "-//W3C//DTD SVG 1.1//EN" "http://www.w3.org/Graphics/SVG/1.1/DTD/svg11.dtd"><svg t="1605512473743" class="icon" viewBox="0 0 1024 1024" version="1.1" xmlns="http://www.w3.org/2000/svg" p-id="15207" xmlns:xlink="http://www.w3.org/1999/xlink" width="64" height="64"><defs><style type="text/css"></style></defs><path d="M768 512m-64 0a64 64 0 1 0 128 0 64 64 0 1 0-128 0Z" p-id="15208" fill="#ce443f"></path><path d="M512 512m-64 0a64 64 0 1 0 128 0 64 64 0 1 0-128 0Z" p-id="15209" fill="#ce443f"></path><path d="M256 512m-64 0a64 64 0 1 0 128 0 64 64 0 1 0-128 0Z" p-id="15210" fill="#ce443f"></path><path d="M512 64a448 448 0 1 0 0 896A448 448 0 0 0 512 64z m0 832A384 384 0 1 1 512 128a384 384 0 0 1 0 768z" p-id="15211" fill="#ce443f"></path></svg>