<?xml version="1.0" standalone="no"?><!DOCTYPE svg PUBLIC "-//W3C//DTD SVG 1.1//EN" "http://www.w3.org/Graphics/SVG/1.1/DTD/svg11.dtd"><svg t="1605512154969" class="icon" viewBox="0 0 1024 1024" version="1.1" xmlns="http://www.w3.org/2000/svg" p-id="7883" xmlns:xlink="http://www.w3.org/1999/xlink" width="64" height="64"><defs><style type="text/css"></style></defs><path d="M256 61.44h512A92.16 92.16 0 0 1 860.16 153.6v716.8a92.16 92.16 0 0 1-92.16 92.16H256A92.16 92.16 0 0 1 163.84 870.4V153.6A92.16 92.16 0 0 1 256 61.44zM256 102.4a51.2 51.2 0 0 0-51.2 51.2v716.8a51.2 51.2 0 0 0 51.2 51.2h512a51.2 51.2 0 0 0 51.2-51.2V153.6a51.2 51.2 0 0 0-51.2-51.2H256z" fill="#EDA847" p-id="7884"></path><path d="M532.48 493.9264V76.8h-40.96v350.8736l-81.92-40.96-81.92 40.96V76.8h-40.96v417.1264l122.88-61.44zM204.8 839.68h614.4v-40.96H204.8z" fill="#EDA847" p-id="7885"></path></svg>