<?xml version="1.0" standalone="no"?><!DOCTYPE svg PUBLIC "-//W3C//DTD SVG 1.1//EN" "http://www.w3.org/Graphics/SVG/1.1/DTD/svg11.dtd"><svg t="1610166040320" class="icon" viewBox="0 0 1024 1024" version="1.1" xmlns="http://www.w3.org/2000/svg" p-id="35991" data-spm-anchor-id="a313x.7781069.0.i57" width="64" height="64" xmlns:xlink="http://www.w3.org/1999/xlink"><defs><style type="text/css"></style></defs><path d="M444.529778 967.111111S34.588444 878.364444 217.884444 437.646222c0 0 41.585778 48.924444 35.84 72.533334 0 0 32.654222-111.217778 102.968889-177.664C417.166222 275.342222 478.606222 114.915556 421.944889 56.888889c0 0 280.462222 58.026667 311.751111 348.16 0 0 35.84-92.444444 109.568-101.603556 0 0-22.698667 50.801778 0 126.976 0 0 232.334222 391.623111-168.106667 523.946667 0 0 120.035556-134.144-134.542222-364.430222 0 0-60.017778 123.335111-95.914667 166.798222-0.113778 0.113778-100.238222 110.592-0.113777 210.375111z" fill="#d81e06" p-id="35992"></path></svg>