<?xml version="1.0" standalone="no"?><!DOCTYPE svg PUBLIC "-//W3C//DTD SVG 1.1//EN" "http://www.w3.org/Graphics/SVG/1.1/DTD/svg11.dtd"><svg t="1606304907398" class="icon" viewBox="0 0 1024 1024" version="1.1" xmlns="http://www.w3.org/2000/svg" p-id="1133" xmlns:xlink="http://www.w3.org/1999/xlink" width="32" height="32"><defs><style type="text/css"></style></defs><path d="M622.938697 1024a38.034286 38.034286 0 0 1-35.035428-38.107429V501.028571c0-29.988571 8.045714-49.005714 32.329142-73.508571L943.816411 59.904 80.950126 62.610286l326.217143 364.982857c13.531429 13.604571 27.062857 32.694857 27.062857 54.418286v321.389714c0 27.209143-13.531429 49.005714-35.108572 49.005714-26.916571 0-26.916571-27.209143-26.916571-54.418286V479.305143L10.879269 78.994286C0.054126 65.389714-2.725303 43.593143 2.687269 27.209143A47.981714 47.981714 0 0 1 45.914697 0h930.304c18.870857 0 35.108571 10.898286 43.154286 27.209143a50.907429 50.907429 0 0 1-5.412572 51.785143l-361.325714 400.310857v506.587428c0 27.209143-18.870857 38.107429-29.696 38.107429z" fill="#1888f7" p-id="1134"></path></svg>