<?xml version="1.0" standalone="no"?><!DOCTYPE svg PUBLIC "-//W3C//DTD SVG 1.1//EN" "http://www.w3.org/Graphics/SVG/1.1/DTD/svg11.dtd"><svg t="1607610368994" class="icon" viewBox="0 0 1024 1024" version="1.1" xmlns="http://www.w3.org/2000/svg" p-id="41428" xmlns:xlink="http://www.w3.org/1999/xlink" width="48" height="48"><defs><style type="text/css"></style></defs><path d="M672.059077 1024c-71.010462-0.039385-128.551385-56.635077-128.630154-126.424615V551.384615h351.940923c71.010462 0.039385 128.551385 56.635077 128.630154 126.424616v219.766154c-0.078769 69.789538-57.619692 126.385231-128.630154 126.424615h-223.310769zM472.615385 472.615385H127.054769A127.212308 127.212308 0 0 1 0 345.560615V127.054769A127.212308 127.212308 0 0 1 127.054769 0h218.505846A127.212308 127.212308 0 0 1 472.615385 127.054769V472.615385zM349.735385 1024H128.551385C57.619692 1023.921231 0.078769 967.364923 0 897.575385v-219.766154c0.078769-69.789538 57.619692-126.345846 128.590769-126.424616h349.735385v346.19077c-0.118154 69.789538-57.619692 126.345846-128.630154 126.424615z m547.76123-551.384615H551.384615V127.054769A126.897231 126.897231 0 0 1 677.888 0h219.608615A126.897231 126.897231 0 0 1 1024 127.054769v218.505846A126.897231 126.897231 0 0 1 897.496615 472.615385z" fill="#ffffff" p-id="41429"></path></svg>