<?xml version="1.0" standalone="no"?><!DOCTYPE svg PUBLIC "-//W3C//DTD SVG 1.1//EN" "http://www.w3.org/Graphics/SVG/1.1/DTD/svg11.dtd"><svg t="1608260166119" class="icon" viewBox="0 0 1024 1024" version="1.1" xmlns="http://www.w3.org/2000/svg" p-id="4677" xmlns:xlink="http://www.w3.org/1999/xlink" width="32" height="32"><defs><style type="text/css"></style></defs><path d="M21.90271 65.792211v890.906176a65.791668 65.791668 0 0 0 104.940428 54.373278l361.582305-268.603997a36.430097 36.430097 0 0 1 43.226757 0l364.572835 268.603997a65.791668 65.791668 0 0 0 104.940428-54.373278V65.792211A65.791668 65.791668 0 0 0 935.373796 0.000544H87.966243A65.791668 65.791668 0 0 0 21.90271 65.248478z m670.966262 233.8051l-79.656854 75.850724a10.330923 10.330923 0 0 0-2.99053 9.243457l18.758781 108.746558a10.330923 10.330923 0 0 1-14.952652 10.874656l-98.687501-50.023417a10.330923 10.330923 0 0 0-9.515324 0l-99.231234 51.654615a10.330923 10.330923 0 0 1-14.952652-10.874656l18.758782-108.746557a10.330923 10.330923 0 0 0-2.990531-9.243458l-79.384987-77.481922a10.330923 10.330923 0 0 1 5.709194-17.671316l108.746558-16.040117a10.330923 10.330923 0 0 0 7.884126-5.709195l49.207817-99.5031a10.330923 10.330923 0 0 1 18.486915 0l49.207817 99.5031a10.330923 10.330923 0 0 0 7.884126 5.709195l108.746558 16.040117a10.330923 10.330923 0 0 1 8.699724 17.127583z" fill="#ffffff" p-id="4678"></path></svg>