<?xml version="1.0" standalone="no"?><!DOCTYPE svg PUBLIC "-//W3C//DTD SVG 1.1//EN" "http://www.w3.org/Graphics/SVG/1.1/DTD/svg11.dtd"><svg t="1607612942823" class="icon" viewBox="0 0 1024 1024" version="1.1" xmlns="http://www.w3.org/2000/svg" p-id="44015" xmlns:xlink="http://www.w3.org/1999/xlink" width="32" height="32"><defs><style type="text/css"></style></defs><path d="M550.9632 560.2304h253.6448l6.2208 2.56 8.7552 8.7552 2.56 6.2208v78.7968a156.544 156.544 0 0 1 109.2864 149.8624c0 86.528-68.9152 156.672-154.1632 156.672-85.12 0-154.112-70.2208-154.112-156.5696 0-69.3248 44.8256-130.0992 109.2608-149.8624v-5.632H275.7888v6.8608a156.544 156.544 0 0 1 109.312 149.8624c0 86.528-69.0432 156.672-154.1632 156.672S76.8 894.1056 76.8 807.68c0-69.3248 44.8512-130.0992 109.2864-149.8624v-79.9232l2.56-6.2208 8.7552-8.7808 6.2208-2.56h253.6448v-90.0096c-94.1056-21.9136-161.9968-107.5456-161.9968-206.848C295.2704 146.304 388.7616 51.2 504.064 51.2c115.3024 0 208.7936 95.0272 208.7936 212.2496 0 99.3024-67.8144 184.9344-161.9968 206.848v89.9328h0.1024z" p-id="44016" fill="#ffffff"></path></svg>